<svg width="22" height="22" viewBox="0 0 22 22" fill="none" xmlns="http://www.w3.org/2000/svg">
<path d="M8.59948 16.4158L7.64398 17.6785C7.00699 18.3099 6.36999 18.6256 5.73299 18.6256C5.09599 18.6256 4.45899 18.3099 3.82199 17.9942C3.18499 17.3628 2.86649 16.7315 2.86649 16.1001C2.86649 15.4687 2.86649 14.8373 3.50349 14.2059L5.41449 11.9961C4.77749 10.7333 4.45899 9.78621 4.77749 8.52344L1.274 12.3118C0.636999 13.5745 0 14.8373 0 16.4158C0 17.6785 0.636998 19.257 1.911 19.8884C2.86649 20.8355 4.14049 21.1512 5.41449 21.1512H5.73299C7.32549 21.1512 8.59948 20.5198 9.55498 19.257L10.192 18.3099L8.59948 16.4158Z" fill="#4C4C4C"/>
<path d="M20.7025 12.6274L17.199 8.52344C17.199 9.78621 17.199 11.049 16.562 11.9961L18.7915 14.2059C19.11 14.8373 19.4285 15.4687 19.11 16.1001C19.11 16.7315 18.7915 17.3628 18.1545 17.9942C17.836 18.6256 16.8805 18.6256 16.2435 18.6256C15.6065 18.6256 14.9695 18.3099 14.3325 17.6785L13.377 16.4158L11.7845 18.3099L12.4215 19.257C13.377 20.5198 14.651 21.1512 15.925 21.1512C16.2435 21.1512 16.2435 21.1512 16.562 21.1512C17.836 21.1512 19.11 20.8355 20.0655 19.8884C21.021 18.9413 21.9765 17.6785 21.9765 16.4158C21.9765 15.153 21.658 13.5745 20.7025 12.6274Z" fill="#4C4C4C"/>
<path d="M11.1475 3.15693C12.027 3.15693 12.74 2.45023 12.74 1.57847C12.74 0.706703 12.027 0 11.1475 0C10.268 0 9.55499 0.706703 9.55499 1.57847C9.55499 2.45023 10.268 3.15693 11.1475 3.15693Z" fill="#243E6C"/>
<path d="M16.2435 7.89183C15.6065 5.36629 13.0585 4.10352 10.5105 4.10352C6.68853 4.41921 4.14053 9.15461 7.00702 12.6272L9.23652 15.4685L10.829 17.6783L12.4215 15.7842L10.829 13.2586L8.91802 11.0488C7.96252 10.1017 8.28102 8.20753 9.23652 7.26045C9.55502 7.26045 9.87352 6.94475 10.192 6.94475C10.5105 6.94475 10.829 6.94475 11.1475 6.94475C11.7845 6.94475 12.74 7.26045 13.0585 7.89183C13.377 7.89183 13.6955 8.52322 13.6955 9.15461C13.6955 9.78599 13.377 10.4174 13.0585 11.0488L12.4215 11.6802L14.014 13.89C14.3325 13.5743 14.651 12.9429 14.9695 12.6272C16.2435 11.3645 16.8805 9.78599 16.2435 7.89183Z" fill="#243E6C"/>
</svg>
