<svg width="31" height="36" viewBox="0 0 31 36" fill="none" xmlns="http://www.w3.org/2000/svg">
<g clip-path="url(#clip0_175_8055)">
<path fill-rule="evenodd" clip-rule="evenodd" d="M16.0381 30.1465C16.5545 30.2812 17.0161 30.5537 17.3825 30.9258L17.3854 30.9287C17.4229 30.9668 17.4604 31.0049 17.495 31.0459L25.2385 26.1768C25.1779 25.9395 25.1462 25.6904 25.1462 25.4326C25.1462 24.6152 25.4751 23.8711 26.0031 23.335L26.006 23.332C26.3608 22.9717 26.808 22.7021 27.3071 22.5645V13.3242C26.707 13.2158 26.1704 12.9199 25.755 12.501L25.7521 12.498L25.7492 12.501C25.6915 12.4424 25.6338 12.3809 25.5819 12.3164L17.9913 16.9102C18.1182 17.2383 18.1874 17.5928 18.1874 17.9648C18.1874 18.7705 17.8672 19.4971 17.345 20.0273C16.9901 20.3877 16.5401 20.6572 16.0381 20.7891V30.1465ZM15.3139 15.9814C16.3929 15.9814 17.27 16.8721 17.27 17.9678C17.27 19.0635 16.3929 19.9541 15.3139 19.9541C14.2349 19.9541 13.3578 19.0635 13.3578 17.9678C13.3578 16.8721 14.2349 15.9814 15.3139 15.9814ZM18.1384 32.2324C18.2076 32.4844 18.2451 32.751 18.2451 33.0264C18.2451 33.8467 17.9162 34.5908 17.3883 35.127C16.8603 35.6631 16.1275 35.9971 15.3197 35.9971C14.5148 35.9971 13.7819 35.6631 13.254 35.127L13.2511 35.124L13.2482 35.127C12.7174 34.5879 12.3913 33.8467 12.3913 33.0264C12.3913 32.7334 12.4346 32.4521 12.5125 32.1855L5.05463 27.4893C5.03732 27.5098 5.01712 27.5273 4.99981 27.5479C4.46608 28.084 3.73616 28.418 2.92834 28.418C2.12341 28.418 1.3906 28.084 0.862634 27.5479L0.859749 27.5449L0.856864 27.5479C0.328897 27.0088 0 26.2676 0 25.4443C0 24.627 0.328897 23.8828 0.856864 23.3467L0.859749 23.3438C1.15403 23.0449 1.51466 22.8076 1.9128 22.6582V13.1865C1.51466 13.0371 1.15691 12.7998 0.859749 12.501L0.856864 12.498L0.853979 12.501C0.328897 11.9619 0 11.2207 0 10.3975C0 9.58008 0.328897 8.83594 0.856864 8.2998L0.859749 8.29688C1.3906 7.75781 2.12052 7.42676 2.92545 7.42676C3.6121 7.42676 4.24681 7.66992 4.74593 8.07422L12.4894 3.75C12.4231 3.50098 12.3885 3.24023 12.3885 2.97363C12.3885 2.15625 12.7174 1.41211 13.2453 0.875977L13.2482 0.873047C13.7791 0.333984 14.509 0 15.3168 0C16.1217 0 16.8545 0.333984 17.3825 0.870117L17.3854 0.873047C17.9162 1.41211 18.2423 2.15332 18.2423 2.9707C18.2423 3.25195 18.2047 3.52441 18.1326 3.78223L25.8877 8.16797C26.4041 7.70508 27.0792 7.42383 27.8207 7.42383C28.6256 7.42383 29.3584 7.75781 29.8864 8.29395L29.8893 8.29688C30.4201 8.83594 30.7461 9.57715 30.7461 10.3945C30.7461 11.2148 30.4172 11.959 29.8893 12.4951C29.5632 12.8262 29.1622 13.0781 28.715 13.2246V22.5293C29.2632 22.6553 29.7508 22.9365 30.1345 23.3262L30.1374 23.3291C30.6682 23.8682 30.9942 24.6094 30.9942 25.4268C30.9942 26.2471 30.6653 26.9912 30.1374 27.5273C29.6094 28.0635 28.8766 28.3975 28.0688 28.3975C27.2638 28.3975 26.531 28.0635 26.0031 27.5273L26.0002 27.5244L25.9973 27.5273C25.9656 27.4951 25.9367 27.4658 25.9079 27.4307L18.1384 32.2324ZM13.1703 31.0107C13.1963 30.9844 13.2222 30.9551 13.2482 30.9287L13.2511 30.9258C13.6262 30.5449 14.1022 30.2666 14.633 30.1377V20.7979C14.1166 20.6689 13.655 20.3965 13.2915 20.0273L13.2886 20.0244L13.2857 20.0273C12.7664 19.5 12.4433 18.7705 12.4433 17.9648C12.4433 17.5752 12.5183 17.2061 12.6539 16.8662L5.20465 12.2666C5.1383 12.3486 5.06906 12.4277 4.99693 12.501C4.55551 12.9492 3.97273 13.2568 3.32071 13.3447V22.5C3.96985 22.5879 4.54974 22.8955 4.99404 23.3438L4.99693 23.3467C5.52778 23.8857 5.85379 24.627 5.85379 25.4443C5.85379 25.7227 5.81629 25.9893 5.74705 26.2441L13.1703 31.0107ZM13.3521 3.31641C13.3578 3.3457 13.3636 3.375 13.3694 3.40137L13.3723 3.41016L13.3809 3.44531L13.3838 3.45117C13.3896 3.48047 13.3982 3.50684 13.4069 3.53613L13.4127 3.55664L13.4184 3.57715L13.4242 3.59766L13.4357 3.63574L13.4386 3.6416L13.4473 3.66211L13.4559 3.68262L13.4646 3.70312L13.4732 3.72363L13.4819 3.74414L13.4906 3.76465L13.4992 3.78516L13.5136 3.82031L13.5194 3.8291L13.5281 3.84668L13.5367 3.86719L13.5454 3.8877L13.554 3.90527L13.5656 3.92578L13.5742 3.94043L13.5771 3.94629L13.5886 3.9668L13.6002 3.98438L13.6117 4.00195L13.6204 4.01367L13.6233 4.01953L13.6406 4.0459L13.6492 4.06055L13.6665 4.08398L13.6781 4.10156L13.6839 4.11035L13.6954 4.12793L13.6983 4.13379L13.7012 4.13672L13.7242 4.16602L13.7358 4.18066L13.7502 4.19824L13.7531 4.20117L13.7646 4.21582L13.7791 4.2334V4.23633L13.7906 4.25098L13.805 4.26855L13.8195 4.28613L13.8223 4.28906L13.8454 4.31543L13.8483 4.32129L13.8512 4.32422L13.8772 4.35352L13.88 4.35645L13.9089 4.38867L13.9147 4.39453L13.9435 4.42383L13.9464 4.42676L13.9781 4.45605H13.981L14.0099 4.48242C14.359 4.79297 14.8177 4.98047 15.3197 4.98047C15.8073 4.98047 16.2544 4.80176 16.6007 4.50879L16.618 4.49414L16.6324 4.47949L16.6497 4.46484L16.6612 4.45605L16.667 4.4502L16.693 4.42676L16.6959 4.42383L16.6987 4.4209L16.7218 4.39746L16.7334 4.39453L16.7564 4.37109L16.7593 4.36816L16.7709 4.35645L16.7853 4.33887L16.7968 4.32715L16.7997 4.32422L16.8141 4.30664L16.8286 4.28906L16.843 4.27148L16.869 4.23926C16.8863 4.21875 16.9036 4.19531 16.918 4.1748L16.9209 4.17188L16.9324 4.1543L16.944 4.13672L16.9555 4.11914L16.9671 4.10156L16.9786 4.08398L16.9901 4.06641L17.0017 4.04883L17.0046 4.04297L17.0219 4.01367L17.0248 4.01074L17.045 3.97559V3.97266L17.0565 3.95215L17.0651 3.93457L17.068 3.93164L17.0796 3.91113L17.0911 3.89062L17.0998 3.87012L17.1084 3.84961L17.1171 3.8291L17.1344 3.78809L17.1517 3.75L17.1546 3.74414L17.169 3.70605L17.1777 3.68555L17.1863 3.66504L17.195 3.64453L17.2036 3.62402L17.2094 3.60352V3.60059C17.2181 3.57422 17.2267 3.54492 17.2325 3.51562L17.2383 3.49219L17.244 3.47168L17.2498 3.44824L17.2556 3.42773L17.2613 3.4043C17.2671 3.375 17.2729 3.3457 17.2786 3.31641C17.296 3.20801 17.3046 3.09668 17.3046 2.98242C17.3046 1.86621 16.4131 0.958008 15.311 0.958008C14.2089 0.958008 13.3175 1.86328 13.3175 2.98242C13.3175 3.08496 13.3261 3.18457 13.3405 3.28125L13.3434 3.30469L13.3521 3.31641ZM13.1732 4.99512L5.70377 9.45703C5.80186 9.75293 5.85379 10.0693 5.85379 10.3975C5.85379 10.5645 5.83937 10.7256 5.8134 10.8867L13.5108 15.7031C14.0041 15.2959 14.633 15.0498 15.3168 15.0498C16.0179 15.0498 16.6584 15.3076 17.1575 15.7324L24.9471 10.957C24.9125 10.7754 24.8952 10.5879 24.8952 10.3975C24.8952 10.1221 24.9327 9.85547 25.002 9.60352L17.4316 5.02734C17.4171 5.04199 17.4027 5.05957 17.3883 5.07422C16.8574 5.61328 16.1275 5.94434 15.3197 5.94434C14.5148 5.94434 13.7819 5.61035 13.254 5.07422L13.2511 5.07129L13.2482 5.07422C13.2222 5.04785 13.1963 5.02148 13.1732 4.99512ZM1.9128 12.1406V12.1318C2.12052 12.2578 2.35133 12.3486 2.59656 12.3926C2.7033 12.4102 2.81294 12.4189 2.92545 12.4189C4.02466 12.4189 4.91903 11.5137 4.91903 10.3945C4.91903 9.27539 4.02755 8.37012 2.92545 8.37012C1.82624 8.37012 0.931875 9.27539 0.931875 10.3945C0.93476 11.1416 1.32713 11.7891 1.9128 12.1406ZM4.23527 26.9736L4.21796 26.9648C4.39395 26.8154 4.54974 26.6338 4.67092 26.4199C4.69977 26.3672 4.72862 26.3115 4.75458 26.2588C4.86133 26.0098 4.92192 25.7373 4.92192 25.4502C4.92192 24.3311 4.03043 23.4258 2.92834 23.4258C1.82913 23.4258 0.93476 24.3311 0.93476 25.4502C0.93476 26.5664 1.82624 27.4746 2.92834 27.4746C3.42745 27.4688 3.88329 27.2812 4.23527 26.9736ZM17.2815 3.30469V3.30176L18.1326 3.78223L17.2815 3.30469ZM26.7792 8.6748C26.6176 8.77734 26.4705 8.90039 26.3435 9.04395L26.3262 9.06445L26.3089 9.08203L26.306 9.08496L26.2887 9.10547L26.2829 9.11133L26.28 9.11719L26.2541 9.14941C25.9886 9.49219 25.83 9.92871 25.83 10.3975C25.83 11.5137 26.7215 12.4219 27.8235 12.4219C28.9256 12.4219 29.8171 11.5166 29.8171 10.3975C29.8171 9.27832 28.9256 8.37305 27.8235 8.37305C27.4398 8.37598 27.0821 8.48438 26.7792 8.6748ZM28.0717 23.4082C29.1738 23.4082 30.0652 24.3135 30.0652 25.4326C30.0652 26.5518 29.1738 27.457 28.0717 27.457C26.9725 27.457 26.0781 26.5518 26.0781 25.4326C26.0781 24.3135 26.9725 23.4082 28.0717 23.4082ZM15.3168 31.0049C16.416 31.0049 17.3104 31.9102 17.3104 33.0293C17.3104 34.1484 16.4189 35.0537 15.3168 35.0537C14.2147 35.0537 13.3232 34.1484 13.3232 33.0293C13.3232 31.9102 14.2147 31.0049 15.3168 31.0049Z" fill="#243E6C"/>
</g>
<defs>
<clipPath id="clip0_175_8055">
<rect width="31" height="36" fill="white"/>
</clipPath>
</defs>
</svg>
