<svg width="26" height="25" viewBox="0 0 26 25" fill="none" xmlns="http://www.w3.org/2000/svg">
<path d="M24.0335 7.13934C24.0335 7.42698 24.013 7.71204 23.977 7.99456C23.9873 7.92521 23.995 7.85844 24.0053 7.7891C23.9282 8.34639 23.7818 8.89086 23.5661 9.41218C23.5918 9.35054 23.6175 9.2889 23.6431 9.22727C23.5353 9.48409 23.412 9.73318 23.2708 9.97203C23.1988 10.0927 23.1244 10.2134 23.0448 10.329C23.0062 10.3881 22.9651 10.4446 22.9215 10.5036C22.9035 10.5268 22.8881 10.5499 22.8701 10.573C22.7828 10.6937 22.9882 10.424 22.8727 10.5704C22.6518 10.8452 22.4053 11.0943 22.1561 11.3435C21.9507 11.5489 21.7452 11.7544 21.5424 11.9572C21.0056 12.494 20.4663 13.0333 19.9295 13.5701C19.0101 14.4895 18.0881 15.4115 17.1687 16.3309C16.2878 17.2118 15.4044 18.0952 14.5235 18.9761C14.0946 19.405 13.6683 19.8416 13.2317 20.2679C13.2291 20.2705 13.2265 20.2731 13.224 20.2756C13.1572 20.3399 13.111 20.3219 13.2676 20.25C13.2137 20.2756 13.1675 20.3142 13.1135 20.3373C13.1752 20.3116 13.2368 20.2859 13.2984 20.2602C13.2214 20.2911 13.1443 20.3142 13.0647 20.327C13.1341 20.3167 13.2008 20.309 13.2702 20.2988C13.188 20.309 13.1084 20.309 13.0288 20.2988C13.0981 20.309 13.1649 20.3167 13.2342 20.327C13.152 20.3142 13.075 20.2936 13.0005 20.2602C13.0622 20.2859 13.1238 20.3116 13.1854 20.3373C13.1315 20.3116 13.0827 20.2782 13.0313 20.25C13.2085 20.3501 13.1315 20.3296 13.075 20.2756C13.0724 20.2731 13.0699 20.2705 13.0673 20.2679C13.0519 20.2525 13.0365 20.2371 13.0211 20.2217C12.9517 20.1524 12.8824 20.083 12.813 20.0137C12.5434 19.744 12.2763 19.4769 12.0066 19.2073C11.1437 18.3444 10.2834 17.484 9.42046 16.6211C8.46766 15.676 7.52256 14.7309 6.57488 13.7832L4.33027 11.5386C4.14022 11.3486 3.94761 11.1637 3.76528 10.9685C3.68053 10.8786 3.59578 10.7836 3.51617 10.6885C3.47764 10.6423 3.43912 10.5935 3.39803 10.5447C3.31071 10.4368 3.49819 10.6783 3.43912 10.5986C3.41344 10.5653 3.38775 10.5293 3.36208 10.4959C3.21826 10.2982 3.08728 10.0953 2.96914 9.88213C2.851 9.67411 2.74571 9.45581 2.65325 9.23496L2.73029 9.41987C2.512 8.89338 2.36304 8.34379 2.286 7.7788C2.29627 7.84815 2.30398 7.91492 2.31425 7.98426C2.24234 7.4218 2.24234 6.85681 2.31425 6.2944C2.30398 6.36375 2.29627 6.43051 2.286 6.49986C2.36304 5.93487 2.50943 5.38528 2.73029 4.85879L2.65325 5.0437C2.79964 4.69957 2.9717 4.36826 3.17461 4.05493C3.22854 3.97275 3.28248 3.89314 3.33898 3.81352C3.35952 3.7827 3.38264 3.75446 3.40318 3.72363C3.52132 3.56441 3.3133 3.83663 3.39548 3.73391C3.51619 3.58238 3.64203 3.43599 3.77301 3.29731C3.92196 3.14065 4.07862 2.9917 4.243 2.85045C4.32004 2.78624 4.39965 2.72461 4.4767 2.6604C4.29436 2.81963 4.44589 2.68608 4.49211 2.65269C4.53834 2.61931 4.58457 2.58592 4.6308 2.5551C4.98778 2.30856 5.37044 2.1031 5.76853 1.93362C5.70689 1.9593 5.64525 1.98498 5.58362 2.01066C6.10498 1.79493 6.6494 1.64855 7.20669 1.5715C7.13735 1.58177 7.07058 1.58948 7.00124 1.59975C7.56881 1.52527 8.14409 1.52527 8.71425 1.59975C8.6449 1.58948 8.57814 1.58177 8.50879 1.5715C9.06608 1.64854 9.61055 1.79493 10.1319 2.01066C10.0702 1.98498 10.0086 1.9593 9.94696 1.93362C10.345 2.10312 10.7277 2.30858 11.0847 2.5551C11.1669 2.6116 11.2439 2.67581 11.3261 2.72974C11.1232 2.59876 11.2927 2.70406 11.3389 2.74259C11.3826 2.77854 11.4263 2.81449 11.4699 2.85302C11.5932 2.96089 11.7139 3.07131 11.8295 3.18689L12.5999 3.95733C12.8953 4.25268 13.3935 4.25268 13.6889 3.95733C13.9174 3.72876 14.146 3.50019 14.3746 3.2716C14.5081 3.13806 14.6417 3.00708 14.7829 2.88381C14.8394 2.83501 14.8959 2.78622 14.9524 2.73999C14.9807 2.71687 15.0115 2.69376 15.0398 2.67065C15.1014 2.62185 14.9447 2.74255 14.9576 2.73485C14.9781 2.72458 14.9987 2.70403 15.0166 2.69119C15.145 2.59617 15.276 2.50628 15.4096 2.42153C15.7049 2.23405 16.0157 2.07482 16.3367 1.93872C16.275 1.9644 16.2134 1.99009 16.1518 2.01577C16.6783 1.79747 17.2278 1.64851 17.7928 1.57147C17.7235 1.58174 17.6567 1.58945 17.5874 1.59972C18.1498 1.52781 18.7148 1.52781 19.2772 1.59972C19.2079 1.58945 19.1411 1.58174 19.0718 1.57147C19.6368 1.64851 20.1864 1.7949 20.7128 2.01577C20.6512 1.99008 20.5896 1.9644 20.5279 1.93872C20.8721 2.08511 21.2034 2.25717 21.5167 2.46009C21.5989 2.51402 21.6785 2.56795 21.7581 2.62445C21.7889 2.645 21.8172 2.66811 21.848 2.68866C22.0072 2.80679 21.735 2.59877 21.8377 2.68095C21.9893 2.80166 22.1356 2.9275 22.2743 3.05848C22.431 3.20743 22.5799 3.36409 22.7212 3.52847C22.7854 3.60551 22.847 3.68513 22.9112 3.76217C22.752 3.57983 22.8856 3.73136 22.9189 3.77758C22.9523 3.82381 22.9857 3.87004 23.0165 3.91627C23.2631 4.27325 23.4685 4.65591 23.638 5.054C23.6123 4.99236 23.5867 4.93072 23.561 4.86909C23.7767 5.39045 23.9231 5.93488 24.0001 6.49217C23.9899 6.42282 23.9822 6.35605 23.9719 6.28671C24.013 6.56664 24.0335 6.8517 24.0335 7.13934C24.0335 7.54255 24.3879 7.92777 24.804 7.90979C25.22 7.89181 25.577 7.57078 25.5744 7.13934C25.5693 5.76793 25.1789 4.38623 24.4239 3.23826C23.7125 2.15961 22.7134 1.25306 21.5398 0.706012C20.4534 0.197515 19.2515 -0.0618999 18.0496 0.0125808C16.8452 0.084488 15.6586 0.441469 14.6365 1.08865C13.8634 1.57663 13.2445 2.22639 12.605 2.86586H13.694L12.9569 2.1288C12.4407 1.6126 11.85 1.1606 11.2003 0.824167C9.685 0.0357327 7.93865 -0.187709 6.27448 0.176992C5.47835 0.351632 4.69762 0.675205 4.01189 1.11697C3.28253 1.58696 2.66616 2.17252 2.14226 2.8582C1.26394 4.00617 0.78367 5.43666 0.724592 6.87485C0.665524 8.30276 1.05589 9.76664 1.82635 10.9712C2.31174 11.7314 2.9538 12.3426 3.58815 12.9743L11.2184 20.6046C11.4675 20.8537 11.7141 21.1028 11.9632 21.3494C12.4948 21.8759 13.3346 22.0119 13.9869 21.6216C14.159 21.5189 14.2951 21.3879 14.4338 21.2492L15.4483 20.2348C16.021 19.6621 16.5937 19.0893 17.1638 18.5192C17.8264 17.8566 18.4916 17.1915 19.1542 16.5288C19.7757 15.9074 20.3972 15.2858 21.0213 14.6618C21.4604 14.2226 21.897 13.786 22.3362 13.3468C22.5339 13.1491 22.7291 12.9539 22.9269 12.7562C23.253 12.43 23.5894 12.1141 23.8848 11.7597C24.4549 11.074 24.889 10.3164 25.1843 9.47399C25.4463 8.72923 25.5721 7.92534 25.5747 7.13691C25.5747 6.7337 25.2203 6.34847 24.8042 6.36646C24.3856 6.38701 24.0338 6.70803 24.0338 7.13949L24.0335 7.13934Z" fill="#243E6C"/>
<path d="M0.0812009 24.4535C0.0767982 24.4561 0.0720288 24.4578 0.067259 24.4587C0.0628564 24.4596 0.0579033 24.4601 0.0525836 24.4601C0.0368074 24.4601 0.0243335 24.4561 0.015161 24.4477C0.00635575 24.4389 0.00195312 24.4269 0.00195312 24.4117C0.00195312 24.397 0.00635575 24.3853 0.015161 24.3765C0.024333 24.3677 0.0368074 24.3633 0.0525836 24.3633C0.0579033 24.3633 0.0628564 24.364 0.067259 24.3655C0.0720284 24.3666 0.0767978 24.3682 0.0812009 24.3706V24.3897C0.0767982 24.3868 0.0723956 24.3846 0.067993 24.3831C0.0635904 24.3816 0.058821 24.3809 0.0540511 24.3809C0.0456126 24.3809 0.0390089 24.3838 0.034239 24.3897C0.029286 24.3952 0.0269013 24.4025 0.0269013 24.4117C0.0269013 24.4216 0.0292861 24.4293 0.034239 24.4352C0.0390084 24.4407 0.0456126 24.4433 0.0540511 24.4433C0.0588205 24.4433 0.0635899 24.4425 0.067993 24.4411C0.0723961 24.4396 0.0767982 24.4374 0.0812009 24.4345V24.4535Z" fill="#243E6C"/>
<path d="M0.157567 24.4073C0.155549 24.4063 0.153531 24.4058 0.151697 24.4058C0.149679 24.4054 0.147661 24.4051 0.145826 24.4051C0.139956 24.4051 0.135187 24.4071 0.131885 24.4109C0.128949 24.4144 0.127482 24.4196 0.127482 24.4263V24.4586H0.105469V24.3882H0.127482V24.3999C0.130417 24.3955 0.133536 24.3924 0.137021 24.3904C0.140873 24.388 0.145459 24.3867 0.150963 24.3867H0.153164C0.154081 24.3867 0.155549 24.3871 0.157566 24.3875L0.157567 24.4073Z" fill="#243E6C"/>
<path d="M0.235002 24.4234V24.43H0.182903C0.18327 24.435 0.185104 24.4388 0.18804 24.4418C0.191341 24.4443 0.196111 24.4454 0.201981 24.4454C0.206751 24.4454 0.211704 24.4447 0.216657 24.4432C0.221426 24.4418 0.226563 24.4399 0.232066 24.4373V24.4542C0.226562 24.4562 0.221243 24.4577 0.215923 24.4586C0.210419 24.4595 0.2051 24.4601 0.19978 24.4601C0.186939 24.4601 0.177216 24.457 0.170429 24.4506C0.163458 24.4443 0.160156 24.4351 0.160156 24.4234C0.160156 24.4122 0.163458 24.4034 0.170429 24.397C0.177216 24.3902 0.186756 24.3867 0.199046 24.3867C0.209686 24.3867 0.218308 24.3902 0.224729 24.397C0.231516 24.4034 0.235001 24.4122 0.235001 24.4234L0.235002 24.4234ZM0.212255 24.4161C0.212255 24.4117 0.210971 24.4084 0.208586 24.4058C0.206018 24.4029 0.202716 24.4014 0.198313 24.4014C0.194277 24.4014 0.190975 24.4027 0.18804 24.4051C0.185105 24.4076 0.183271 24.4113 0.182904 24.4161L0.212255 24.4161Z" fill="#243E6C"/>
<path d="M0.286689 24.4271C0.281736 24.4271 0.278067 24.4278 0.275682 24.4293C0.273114 24.4307 0.272013 24.4333 0.272013 24.4366C0.272013 24.4396 0.27293 24.4418 0.274948 24.4432C0.276782 24.4447 0.279534 24.4454 0.28302 24.4454C0.287422 24.4454 0.290724 24.444 0.293292 24.441C0.296228 24.4381 0.297695 24.4342 0.297695 24.4293V24.4271L0.286689 24.4271ZM0.320442 24.4183V24.4586H0.297695V24.4484C0.29476 24.4528 0.291274 24.4561 0.287422 24.4579C0.283937 24.4594 0.279534 24.4601 0.274214 24.4601C0.266876 24.4601 0.261006 24.4583 0.256604 24.4542C0.252201 24.4498 0.25 24.4443 0.25 24.4373C0.25 24.4291 0.252568 24.4232 0.258072 24.4197C0.263942 24.4159 0.272747 24.4139 0.284487 24.4139H0.297695V24.4117C0.297695 24.4084 0.296228 24.4058 0.293293 24.4043C0.290725 24.4025 0.286689 24.4014 0.280819 24.4014C0.275866 24.4014 0.27128 24.4019 0.266877 24.4029C0.262841 24.404 0.259172 24.4054 0.25587 24.4073V24.3904C0.26064 24.3889 0.265593 24.388 0.270546 24.3875C0.275315 24.3871 0.280084 24.3867 0.284487 24.3867C0.297145 24.3867 0.306134 24.3893 0.311637 24.3941C0.317507 24.399 0.320442 24.4071 0.320442 24.4183V24.4183Z" fill="#243E6C"/>
<path d="M0.365785 24.3691V24.389H0.389265V24.4051H0.365785V24.4352C0.365785 24.4381 0.366152 24.4403 0.367252 24.4418C0.36872 24.4429 0.371288 24.4433 0.375324 24.4433H0.387064V24.4594H0.367986C0.359181 24.4594 0.35276 24.4577 0.348908 24.4543C0.345423 24.4504 0.343772 24.444 0.343772 24.4352V24.4051H0.332031V24.389H0.343772V24.3691L0.365785 24.3691Z" fill="#243E6C"/>
<path d="M0.47133 24.4234V24.43H0.419231C0.419598 24.435 0.421432 24.4388 0.424368 24.4418C0.42767 24.4443 0.432439 24.4454 0.43831 24.4454C0.443079 24.4454 0.448032 24.4447 0.452985 24.4432C0.457754 24.4418 0.462891 24.4399 0.468394 24.4373V24.4542C0.462891 24.4562 0.457571 24.4577 0.452251 24.4586C0.446748 24.4595 0.441428 24.4601 0.436108 24.4601C0.423267 24.4601 0.413544 24.457 0.406757 24.4506C0.399786 24.4443 0.396484 24.4351 0.396484 24.4234C0.396484 24.4122 0.399786 24.4034 0.406757 24.397C0.413544 24.3902 0.423084 24.3867 0.435374 24.3867C0.446014 24.3867 0.454636 24.3902 0.461057 24.397C0.467844 24.4034 0.471329 24.4122 0.471329 24.4234L0.47133 24.4234ZM0.448583 24.4161C0.448583 24.4117 0.447299 24.4084 0.444914 24.4058C0.442346 24.4029 0.439044 24.4014 0.434641 24.4014C0.430605 24.4014 0.427303 24.4027 0.424368 24.4051C0.421433 24.4076 0.419599 24.4113 0.419232 24.4161L0.448583 24.4161Z" fill="#243E6C"/>
<path d="M0.535253 24.4007V24.3633H0.558001V24.4609H0.535253V24.4506C0.531768 24.455 0.528099 24.4583 0.524247 24.4601C0.520761 24.4616 0.516542 24.4623 0.511773 24.4623C0.503334 24.4623 0.496364 24.459 0.490494 24.4521C0.48499 24.4453 0.482422 24.4365 0.482422 24.4257C0.482422 24.415 0.48499 24.4062 0.490494 24.3992C0.496364 24.3924 0.503335 24.389 0.511773 24.389C0.516542 24.389 0.520762 24.3901 0.524247 24.3919C0.528099 24.3939 0.531768 24.3968 0.535253 24.4007V24.4007ZM0.520578 24.4462C0.524981 24.4462 0.528282 24.4445 0.530851 24.4411C0.533786 24.4378 0.535253 24.4326 0.535253 24.4257C0.535253 24.4194 0.533786 24.4145 0.530851 24.411C0.528283 24.4071 0.524981 24.4051 0.520578 24.4051C0.515625 24.4051 0.511956 24.4071 0.509571 24.411C0.507003 24.4145 0.505902 24.4194 0.505902 24.4257C0.505902 24.4326 0.507003 24.4378 0.509571 24.4411C0.511956 24.4445 0.515625 24.4462 0.520578 24.4462Z" fill="#243E6C"/>
<path d="M0.662422 24.4462C0.666825 24.4462 0.670127 24.4445 0.672695 24.4411C0.67563 24.4378 0.677098 24.4326 0.677098 24.4257C0.677098 24.4194 0.67563 24.4145 0.672695 24.411C0.670127 24.4071 0.666825 24.4051 0.662422 24.4051C0.657469 24.4051 0.653617 24.4071 0.650682 24.411C0.648114 24.4145 0.647013 24.4194 0.647013 24.4257C0.647013 24.4326 0.648114 24.4378 0.650682 24.4411C0.653617 24.4445 0.657469 24.4462 0.662422 24.4462ZM0.647013 24.4007C0.650315 24.3968 0.6538 24.3939 0.657286 24.3919C0.661138 24.3901 0.665541 24.389 0.670494 24.389C0.679299 24.389 0.68627 24.3924 0.691773 24.3992C0.697093 24.4062 0.699845 24.415 0.699845 24.4257C0.699845 24.4365 0.697093 24.4453 0.691773 24.4521C0.68627 24.459 0.679299 24.4623 0.670494 24.4623C0.665541 24.4623 0.661138 24.4616 0.657286 24.4601C0.653801 24.4583 0.650315 24.455 0.647013 24.4506V24.4609H0.625V24.3633H0.647013V24.4007Z" fill="#243E6C"/>
<path d="M0.708984 24.3887H0.731732L0.750076 24.4364L0.766219 24.3887H0.788966L0.759615 24.4657C0.75668 24.4734 0.753011 24.4789 0.748608 24.4819C0.744572 24.4852 0.739436 24.487 0.733199 24.487H0.720725V24.4723H0.727329C0.731181 24.4723 0.733933 24.4716 0.735401 24.4701C0.737235 24.469 0.738703 24.4668 0.739803 24.4635L0.740537 24.462L0.708984 24.3887Z" fill="#243E6C"/>
<path d="M0.898545 24.3904V24.408C0.894142 24.4056 0.889373 24.404 0.884603 24.4029C0.8802 24.4019 0.875981 24.4014 0.872129 24.4014C0.868093 24.4014 0.864975 24.4021 0.86259 24.4036C0.860572 24.4047 0.859655 24.4062 0.859655 24.408C0.859655 24.41 0.860389 24.4115 0.861856 24.4124C0.863324 24.4135 0.866259 24.4142 0.870662 24.4146L0.874331 24.4153C0.886071 24.4168 0.893775 24.4194 0.897811 24.4227C0.901663 24.4256 0.903681 24.4307 0.903681 24.4381C0.903681 24.4454 0.900746 24.4511 0.894876 24.455C0.889373 24.4584 0.881301 24.4601 0.870662 24.4601C0.865709 24.4601 0.860756 24.4595 0.855986 24.4586C0.851033 24.4583 0.84608 24.4572 0.841311 24.4557V24.4388C0.845714 24.4414 0.850116 24.443 0.854519 24.444C0.859288 24.4451 0.864241 24.4454 0.869194 24.4454C0.873597 24.4454 0.876716 24.4451 0.878733 24.444C0.881118 24.4425 0.882402 24.4407 0.882402 24.4381C0.882402 24.4362 0.881668 24.4348 0.880201 24.4337C0.878733 24.4328 0.875431 24.432 0.870662 24.4315L0.866993 24.4307C0.85672 24.4298 0.849566 24.4276 0.845714 24.4241C0.841678 24.4208 0.839844 24.4157 0.839844 24.4087C0.839844 24.4014 0.842228 24.3961 0.847181 24.3926C0.852501 24.3887 0.860389 24.3867 0.870662 24.3867C0.875065 24.3867 0.879467 24.3873 0.88387 24.3882C0.888639 24.3887 0.893592 24.3895 0.898545 24.3904L0.898545 24.3904Z" fill="#243E6C"/>
<path d="M0.994271 24.4183V24.4609H0.971523V24.4286C0.971523 24.4223 0.971157 24.4181 0.97079 24.4161C0.97079 24.4137 0.970423 24.4117 0.970056 24.4102C0.968955 24.4088 0.967855 24.4079 0.966387 24.4073C0.96492 24.4064 0.963085 24.4058 0.96125 24.4058C0.956297 24.4058 0.952445 24.4079 0.94951 24.4117C0.946942 24.4152 0.945841 24.4201 0.945841 24.4264V24.4609H0.923828V24.3633H0.945841V24.4007C0.949143 24.3969 0.952812 24.3939 0.956848 24.3919C0.9607 24.3901 0.96492 24.389 0.969322 24.389C0.977577 24.389 0.983631 24.3915 0.987666 24.3963C0.992069 24.4013 0.99427 24.4086 0.99427 24.4183L0.994271 24.4183Z" fill="#243E6C"/>
<path d="M1.0445 24.4271C1.03955 24.4271 1.03588 24.4278 1.03349 24.4293C1.03093 24.4307 1.02983 24.4333 1.02983 24.4366C1.02983 24.4396 1.03074 24.4418 1.03276 24.4432C1.03459 24.4447 1.03735 24.4454 1.04083 24.4454C1.04523 24.4454 1.04854 24.444 1.0511 24.441C1.05404 24.4381 1.05551 24.4342 1.05551 24.4293V24.4271L1.0445 24.4271ZM1.07825 24.4183V24.4586H1.05551V24.4484C1.05257 24.4528 1.04909 24.4561 1.04523 24.4579C1.04175 24.4594 1.03735 24.4601 1.03203 24.4601C1.02469 24.4601 1.01882 24.4583 1.01442 24.4542C1.01001 24.4498 1.00781 24.4443 1.00781 24.4373C1.00781 24.4291 1.01038 24.4232 1.01588 24.4197C1.02175 24.4159 1.03056 24.4139 1.0423 24.4139H1.05551V24.4117C1.05551 24.4084 1.05404 24.4058 1.05111 24.4043C1.04854 24.4025 1.0445 24.4014 1.03863 24.4014C1.03368 24.4014 1.02909 24.4019 1.02469 24.4029C1.02065 24.404 1.01698 24.4054 1.01368 24.4073V24.3904C1.01845 24.3889 1.02341 24.388 1.02836 24.3875C1.03313 24.3871 1.0379 24.3867 1.0423 24.3867C1.05496 24.3867 1.06395 24.3893 1.06945 24.3941C1.07532 24.399 1.07825 24.4071 1.07825 24.4183V24.4183Z" fill="#243E6C"/>
<path d="M1.1544 24.3904V24.408C1.15 24.4056 1.14523 24.404 1.14046 24.4029C1.13606 24.4019 1.13184 24.4014 1.12799 24.4014C1.12395 24.4014 1.12083 24.4021 1.11845 24.4036C1.11643 24.4047 1.11551 24.4062 1.11551 24.408C1.11551 24.41 1.11625 24.4115 1.11772 24.4124C1.11918 24.4135 1.12212 24.4142 1.12652 24.4146L1.13019 24.4153C1.14193 24.4168 1.14963 24.4194 1.15367 24.4227C1.15752 24.4256 1.15954 24.4307 1.15954 24.4381C1.15954 24.4454 1.15661 24.4511 1.15074 24.455C1.14523 24.4584 1.13716 24.4601 1.12652 24.4601C1.12157 24.4601 1.11662 24.4595 1.11185 24.4586C1.10689 24.4583 1.10194 24.4572 1.09717 24.4557V24.4388C1.10157 24.4414 1.10598 24.443 1.11038 24.444C1.11515 24.4451 1.1201 24.4454 1.12505 24.4454C1.12946 24.4454 1.13258 24.4451 1.13459 24.444C1.13698 24.4425 1.13826 24.4407 1.13826 24.4381C1.13826 24.4362 1.13753 24.4348 1.13606 24.4337C1.13459 24.4328 1.13129 24.432 1.12652 24.4315L1.12285 24.4307C1.11258 24.4298 1.10543 24.4276 1.10157 24.4241C1.09754 24.4208 1.0957 24.4157 1.0957 24.4087C1.0957 24.4014 1.09809 24.3961 1.10304 24.3926C1.10836 24.3887 1.11625 24.3867 1.12652 24.3867C1.13092 24.3867 1.13533 24.3873 1.13973 24.3882C1.1445 24.3887 1.14945 24.3895 1.1544 24.3904L1.1544 24.3904Z" fill="#243E6C"/>
<path d="M1.24622 24.4183V24.4609H1.22348V24.4286C1.22348 24.4223 1.22311 24.4181 1.22274 24.4161C1.22274 24.4137 1.22238 24.4117 1.22201 24.4102C1.22091 24.4088 1.21981 24.4079 1.21834 24.4073C1.21687 24.4064 1.21504 24.4058 1.2132 24.4058C1.20825 24.4058 1.2044 24.4079 1.20146 24.4117C1.1989 24.4152 1.19779 24.4201 1.19779 24.4264V24.4609H1.17578V24.3633H1.19779V24.4007C1.2011 24.3969 1.20477 24.3939 1.2088 24.3919C1.21265 24.3901 1.21687 24.389 1.22128 24.389C1.22953 24.389 1.23558 24.3915 1.23962 24.3963C1.24402 24.4013 1.24622 24.4086 1.24622 24.4183L1.24622 24.4183Z" fill="#243E6C"/>
<path d="M1.30036 24.4271C1.29541 24.4271 1.29174 24.4278 1.28935 24.4293C1.28679 24.4307 1.28568 24.4333 1.28568 24.4366C1.28568 24.4396 1.2866 24.4418 1.28862 24.4432C1.29045 24.4447 1.29321 24.4454 1.29669 24.4454C1.30109 24.4454 1.3044 24.444 1.30696 24.441C1.3099 24.4381 1.31137 24.4342 1.31137 24.4293V24.4271L1.30036 24.4271ZM1.33411 24.4183V24.4586H1.31137V24.4484C1.30843 24.4528 1.30495 24.4561 1.30109 24.4579C1.29761 24.4594 1.29321 24.4601 1.28789 24.4601C1.28055 24.4601 1.27468 24.4583 1.27028 24.4542C1.26587 24.4498 1.26367 24.4443 1.26367 24.4373C1.26367 24.4291 1.26624 24.4232 1.27174 24.4197C1.27761 24.4159 1.28642 24.4139 1.29816 24.4139H1.31137V24.4117C1.31137 24.4084 1.3099 24.4058 1.30696 24.4043C1.3044 24.4025 1.30036 24.4014 1.29449 24.4014C1.28954 24.4014 1.28495 24.4019 1.28055 24.4029C1.27651 24.404 1.27284 24.4054 1.26954 24.4073V24.3904C1.27431 24.3889 1.27926 24.388 1.28422 24.3875C1.28899 24.3871 1.29376 24.3867 1.29816 24.3867C1.31082 24.3867 1.31981 24.3893 1.32531 24.3941C1.33118 24.399 1.33411 24.4071 1.33411 24.4183V24.4183Z" fill="#243E6C"/>
<path d="M1.42591 24.4161V24.4586H1.40316V24.4256C1.40316 24.4197 1.4028 24.4159 1.40243 24.4139C1.40243 24.4115 1.40206 24.4095 1.4017 24.408C1.4006 24.4065 1.3995 24.4056 1.39803 24.4051C1.39656 24.4041 1.39473 24.4036 1.39289 24.4036C1.38794 24.4036 1.38409 24.4056 1.38115 24.4095C1.37858 24.413 1.37748 24.4179 1.37748 24.4241V24.4586H1.35547V24.3882H1.37748V24.3985C1.38078 24.3946 1.38445 24.3917 1.38849 24.3897C1.39234 24.3878 1.39656 24.3867 1.40096 24.3867C1.40922 24.3867 1.41527 24.3893 1.41931 24.3941C1.42371 24.399 1.42591 24.4063 1.42591 24.4161L1.42591 24.4161Z" fill="#243E6C"/>
<path d="M1.44531 24.3633H1.46733V24.4161L1.49301 24.3904H1.51942L1.48494 24.4227L1.52236 24.4609H1.49521L1.46733 24.4315V24.4609H1.44531L1.44531 24.3633Z" fill="#243E6C"/>
<path d="M1.63097 24.3904V24.408C1.62656 24.4056 1.62179 24.404 1.61702 24.4029C1.61262 24.4019 1.6084 24.4014 1.60455 24.4014C1.60052 24.4014 1.5974 24.4021 1.59501 24.4036C1.59299 24.4047 1.59208 24.4062 1.59208 24.408C1.59208 24.41 1.59281 24.4115 1.59428 24.4124C1.59575 24.4135 1.59868 24.4142 1.60308 24.4146L1.60675 24.4153C1.61849 24.4168 1.6262 24.4194 1.63023 24.4227C1.63409 24.4256 1.6361 24.4307 1.6361 24.4381C1.6361 24.4454 1.63317 24.4511 1.6273 24.455C1.62179 24.4584 1.61372 24.4601 1.60308 24.4601C1.59813 24.4601 1.59318 24.4595 1.58841 24.4586C1.58346 24.4583 1.5785 24.4572 1.57373 24.4557V24.4388C1.57814 24.4414 1.58254 24.443 1.58694 24.444C1.59171 24.4451 1.59666 24.4454 1.60162 24.4454C1.60602 24.4454 1.60914 24.4451 1.61116 24.444C1.61354 24.4425 1.61482 24.4407 1.61482 24.4381C1.61482 24.4362 1.61409 24.4348 1.61262 24.4337C1.61116 24.4328 1.60785 24.432 1.60308 24.4315L1.59941 24.4307C1.58914 24.4298 1.58199 24.4276 1.57814 24.4241C1.5741 24.4208 1.57227 24.4157 1.57227 24.4087C1.57227 24.4014 1.57465 24.3961 1.5796 24.3926C1.58492 24.3887 1.59281 24.3867 1.60308 24.3867C1.60749 24.3867 1.61189 24.3873 1.61629 24.3882C1.62106 24.3887 1.62601 24.3895 1.63097 24.3904L1.63097 24.3904Z" fill="#243E6C"/>
<path d="M1.6543 24.3904H1.67631V24.4609H1.6543V24.3904ZM1.6543 24.3633H1.67631V24.3816H1.6543V24.3633Z" fill="#243E6C"/>
<path d="M1.76771 24.4161V24.4586H1.74496V24.4256C1.74496 24.4197 1.74459 24.4159 1.74423 24.4139C1.74423 24.4115 1.74386 24.4095 1.74349 24.408C1.74239 24.4065 1.74129 24.4056 1.73982 24.4051C1.73836 24.4041 1.73652 24.4036 1.73469 24.4036C1.72973 24.4036 1.72588 24.4056 1.72295 24.4095C1.72038 24.413 1.71928 24.4179 1.71928 24.4241V24.4586H1.69727V24.3882H1.71928V24.3985C1.72258 24.3946 1.72625 24.3917 1.73029 24.3897C1.73414 24.3878 1.73836 24.3867 1.74276 24.3867C1.75101 24.3867 1.75707 24.3893 1.7611 24.3941C1.76551 24.399 1.76771 24.4063 1.76771 24.4161L1.76771 24.4161Z" fill="#243E6C"/>
<path d="M1.83408 24.4469C1.8306 24.4509 1.82693 24.4539 1.82307 24.4557C1.81959 24.4577 1.81537 24.4586 1.8106 24.4586C1.80216 24.4586 1.79519 24.4553 1.78932 24.4484C1.78382 24.4416 1.78125 24.4329 1.78125 24.4227C1.78125 24.4124 1.78382 24.404 1.78932 24.397C1.79519 24.3902 1.80216 24.3867 1.8106 24.3867C1.81537 24.3867 1.81959 24.3878 1.82307 24.3897C1.82693 24.3917 1.8306 24.3946 1.83408 24.3985V24.3882H1.85683V24.4513C1.85683 24.4625 1.85316 24.4711 1.84582 24.477C1.83848 24.4832 1.82821 24.4865 1.815 24.4865C1.8106 24.4865 1.8062 24.486 1.8018 24.485C1.79776 24.4845 1.79391 24.4836 1.79006 24.4821V24.4645C1.79391 24.4669 1.79758 24.4685 1.80106 24.4696C1.80491 24.4711 1.80877 24.4718 1.8128 24.4718C1.82014 24.4718 1.82546 24.47 1.82895 24.4667C1.83225 24.4632 1.83408 24.4583 1.83408 24.4513L1.83408 24.4469ZM1.81941 24.4029C1.81445 24.4029 1.81078 24.4047 1.8084 24.408C1.80583 24.4115 1.80473 24.4164 1.80473 24.4227C1.80473 24.4291 1.80583 24.434 1.8084 24.4373C1.81078 24.4408 1.81445 24.4425 1.81941 24.4425C1.82381 24.4425 1.82711 24.4408 1.82968 24.4373C1.83261 24.434 1.83408 24.4291 1.83408 24.4227C1.83408 24.4164 1.83261 24.4115 1.82968 24.408C1.82711 24.4047 1.82381 24.4029 1.81941 24.4029Z" fill="#243E6C"/>
<path d="M1.94935 24.4183V24.4609H1.9266V24.4286C1.9266 24.4223 1.92623 24.4181 1.92587 24.4161C1.92587 24.4137 1.9255 24.4117 1.92513 24.4102C1.92403 24.4088 1.92293 24.4079 1.92147 24.4073C1.92 24.4064 1.91816 24.4058 1.91633 24.4058C1.91138 24.4058 1.90752 24.4079 1.90459 24.4117C1.90202 24.4152 1.90092 24.4201 1.90092 24.4264V24.4609H1.87891V24.3633H1.90092V24.4007C1.90422 24.3969 1.90789 24.3939 1.91193 24.3919C1.91578 24.3901 1.92 24.389 1.9244 24.389C1.93265 24.389 1.93871 24.3915 1.94274 24.3963C1.94715 24.4013 1.94935 24.4086 1.94935 24.4183L1.94935 24.4183Z" fill="#243E6C"/>
<path d="M0.0550326 24.4902V24.5049H0.0425587C0.0390733 24.5049 0.0366886 24.5056 0.035221 24.5071C0.0341204 24.5082 0.0337535 24.51 0.0337535 24.513V24.5174H0.0528315V24.5335H0.0337535V24.5878H0.0117403V24.5335H0V24.5174H0.0117403V24.513C0.0117403 24.5053 0.0135748 24.4996 0.0176105 24.4961C0.0220131 24.4923 0.0286173 24.4902 0.0374226 24.4902L0.0550326 24.4902Z" fill="#243E6C"/>
<path d="M0.116551 24.5362C0.114533 24.5353 0.112515 24.5347 0.110681 24.5347C0.108663 24.5343 0.106645 24.534 0.104811 24.534C0.0989406 24.534 0.0941712 24.536 0.0908689 24.5398C0.0879338 24.5433 0.0864663 24.5485 0.0864663 24.5552V24.5875H0.0644531V24.5171H0.0864663V24.5288C0.0894013 24.5244 0.09252 24.5213 0.096005 24.5193C0.0998573 24.5169 0.104444 24.5156 0.109947 24.5156H0.112148C0.113065 24.5156 0.114533 24.516 0.116551 24.5164L0.116551 24.5362Z" fill="#243E6C"/>
<path d="M0.161203 24.5318C0.15625 24.5318 0.152398 24.5336 0.149463 24.5369C0.146894 24.5404 0.145794 24.5455 0.145794 24.5523C0.145794 24.5593 0.146894 24.5646 0.149463 24.5685C0.152398 24.5719 0.15625 24.5736 0.161203 24.5736C0.165972 24.5736 0.169641 24.5719 0.17221 24.5685C0.175145 24.5646 0.176612 24.5593 0.176612 24.5523C0.176612 24.5455 0.175145 24.5404 0.17221 24.5369C0.169642 24.5336 0.165973 24.5318 0.161203 24.5318ZM0.161203 24.5156C0.17331 24.5156 0.182849 24.5191 0.18982 24.5259C0.196608 24.5323 0.200093 24.5411 0.200093 24.5523C0.200093 24.5641 0.196608 24.5732 0.18982 24.5795C0.182849 24.5859 0.173311 24.589 0.161203 24.589C0.148912 24.589 0.139373 24.5859 0.132586 24.5795C0.126165 24.5732 0.123047 24.5641 0.123047 24.5523C0.123047 24.5411 0.126165 24.5323 0.132586 24.5259C0.139373 24.5191 0.148912 24.5156 0.161203 24.5156Z" fill="#243E6C"/>
<path d="M0.281369 24.5288C0.284304 24.5244 0.287606 24.5213 0.291642 24.5193C0.295494 24.5169 0.299897 24.5156 0.30485 24.5156C0.312554 24.5156 0.318792 24.5182 0.323194 24.523C0.327597 24.5279 0.329798 24.5353 0.329798 24.545V24.5875H0.30705V24.5508V24.5494V24.5464C0.30705 24.5417 0.306317 24.5382 0.304849 24.5362C0.303382 24.5338 0.300813 24.5325 0.297511 24.5325C0.293476 24.5325 0.290357 24.5343 0.287973 24.5376C0.285404 24.5411 0.284304 24.5463 0.284304 24.553V24.5875H0.261557V24.5508C0.261557 24.5431 0.260823 24.5382 0.259355 24.5362C0.258255 24.5338 0.256053 24.5325 0.252752 24.5325C0.248349 24.5325 0.244864 24.5345 0.242479 24.5384C0.239911 24.5419 0.23881 24.5468 0.23881 24.553V24.5875H0.216797V24.5171H0.23881V24.5274C0.241745 24.5235 0.244864 24.5206 0.248349 24.5186C0.252201 24.5167 0.256053 24.5156 0.260089 24.5156C0.264859 24.5156 0.269078 24.5169 0.272563 24.5193C0.276415 24.5219 0.27935 24.525 0.281368 24.5288L0.281369 24.5288Z" fill="#243E6C"/>
<path d="M0.418519 24.498V24.5179H0.442V24.534H0.418519V24.5641C0.418519 24.567 0.418886 24.5692 0.419987 24.5707C0.421454 24.5718 0.424022 24.5722 0.428058 24.5722H0.439799V24.5883H0.420721C0.411915 24.5883 0.405495 24.5866 0.401643 24.5832C0.398157 24.5793 0.396506 24.5729 0.396506 24.5641V24.534H0.384766V24.5179H0.396506V24.498L0.418519 24.498Z" fill="#243E6C"/>
<path d="M0.525521 24.5453V24.5878H0.502773V24.5555C0.502773 24.5493 0.502407 24.5451 0.50204 24.5431C0.50204 24.5407 0.501673 24.5387 0.501306 24.5372C0.500205 24.5357 0.499105 24.5348 0.497637 24.5343C0.49617 24.5333 0.494335 24.5328 0.4925 24.5328C0.487547 24.5328 0.483695 24.5348 0.48076 24.5387C0.478192 24.5421 0.477091 24.5471 0.477091 24.5533V24.5878H0.455078V24.4902H0.477091V24.5277C0.480393 24.5238 0.484062 24.5209 0.488098 24.5189C0.49195 24.517 0.49617 24.5159 0.500572 24.5159C0.508827 24.5159 0.514881 24.5185 0.518916 24.5233C0.523319 24.5282 0.52552 24.5355 0.52552 24.5453L0.525521 24.5453Z" fill="#243E6C"/>
<path d="M0.617814 24.5523V24.5589H0.565715C0.566082 24.5639 0.567917 24.5677 0.570852 24.5707C0.574154 24.5732 0.578924 24.5743 0.584794 24.5743C0.589563 24.5743 0.594516 24.5736 0.599469 24.5721C0.604239 24.5707 0.609375 24.5688 0.614878 24.5663V24.5831C0.609375 24.5851 0.604055 24.5866 0.598735 24.5875C0.593232 24.5885 0.587912 24.589 0.582592 24.589C0.569751 24.589 0.560029 24.5859 0.553242 24.5795C0.546271 24.5732 0.542969 24.5641 0.542969 24.5523C0.542969 24.5411 0.546271 24.5323 0.553242 24.5259C0.560029 24.5191 0.569568 24.5156 0.581859 24.5156C0.592498 24.5156 0.601121 24.5191 0.607541 24.5259C0.614328 24.5323 0.617814 24.5411 0.617814 24.5523L0.617814 24.5523ZM0.595067 24.545C0.595067 24.5406 0.593783 24.5373 0.591398 24.5347C0.58883 24.5318 0.585528 24.5303 0.581126 24.5303C0.57709 24.5303 0.573788 24.5316 0.570853 24.534C0.567918 24.5365 0.566083 24.5402 0.565716 24.545L0.595067 24.545Z" fill="#243E6C"/>
<path d="M0.681641 24.4941H0.70879L0.742544 24.5587V24.4941H0.765291V24.5881H0.738875L0.704388 24.5235V24.5881H0.681641L0.681641 24.4941Z" fill="#243E6C"/>
<path d="M0.819406 24.5318C0.814453 24.5318 0.810601 24.5336 0.807666 24.5369C0.805098 24.5404 0.803997 24.5455 0.803997 24.5523C0.803997 24.5593 0.805098 24.5646 0.807666 24.5685C0.810601 24.5719 0.814453 24.5736 0.819406 24.5736C0.824175 24.5736 0.827845 24.5719 0.830413 24.5685C0.833348 24.5646 0.834816 24.5593 0.834816 24.5523C0.834816 24.5455 0.833348 24.5404 0.830413 24.5369C0.827845 24.5336 0.824176 24.5318 0.819406 24.5318ZM0.819406 24.5156C0.831513 24.5156 0.841052 24.5191 0.848023 24.5259C0.854811 24.5323 0.858296 24.5411 0.858296 24.5523C0.858296 24.5641 0.854811 24.5732 0.848023 24.5795C0.841052 24.5859 0.831514 24.589 0.819406 24.589C0.807115 24.589 0.797577 24.5859 0.790789 24.5795C0.784368 24.5732 0.78125 24.5641 0.78125 24.5523C0.78125 24.5411 0.784369 24.5323 0.790789 24.5259C0.797576 24.5191 0.807115 24.5156 0.819406 24.5156Z" fill="#243E6C"/>
<path d="M0.875 24.5609V24.5176H0.897013V24.5249V24.5396V24.5506V24.5631C0.89738 24.5656 0.898114 24.5673 0.899214 24.5682C0.900132 24.5697 0.901416 24.571 0.902883 24.5719C0.904351 24.5724 0.906002 24.5726 0.90802 24.5726C0.912423 24.5726 0.915724 24.571 0.918293 24.5675C0.921228 24.5642 0.922695 24.5592 0.922695 24.5528V24.5176H0.945442V24.588H0.922695V24.5777C0.91921 24.5821 0.915541 24.5855 0.911689 24.5873C0.908203 24.5888 0.904351 24.5895 0.899948 24.5895C0.89151 24.5895 0.885273 24.5871 0.88087 24.5821C0.876834 24.5774 0.875 24.5702 0.875 24.5609V24.5609Z" fill="#243E6C"/>
<path d="M1.03529 24.545V24.5875H1.01254V24.5545C1.01254 24.5486 1.01217 24.5448 1.01181 24.5428C1.01181 24.5404 1.01144 24.5384 1.01107 24.5369C1.00997 24.5354 1.00887 24.5345 1.0074 24.534C1.00594 24.5331 1.0041 24.5325 1.00227 24.5325C0.997313 24.5325 0.993461 24.5345 0.990526 24.5384C0.987958 24.5419 0.986857 24.5468 0.986857 24.553V24.5875H0.964844V24.5171H0.986857V24.5274C0.990159 24.5235 0.993828 24.5206 0.997864 24.5186C1.00172 24.5167 1.00594 24.5156 1.01034 24.5156C1.01859 24.5156 1.02465 24.5182 1.02868 24.523C1.03308 24.5279 1.03529 24.5353 1.03529 24.545L1.03529 24.545Z" fill="#243E6C"/>
<path d="M1.10547 24.4941H1.14583C1.15757 24.4941 1.16656 24.4969 1.17298 24.5022C1.17921 24.5077 1.18251 24.5152 1.18251 24.525C1.18251 24.5349 1.17921 24.5424 1.17298 24.5477C1.16656 24.5532 1.15757 24.5558 1.14583 24.5558H1.12968V24.5881H1.10547L1.10547 24.4941ZM1.12968 24.5118V24.5382H1.14289C1.14766 24.5382 1.15133 24.5372 1.1539 24.5352C1.15628 24.5328 1.15757 24.5294 1.15757 24.525C1.15757 24.5206 1.15628 24.5174 1.1539 24.5154C1.15133 24.513 1.14766 24.5118 1.14289 24.5118L1.12968 24.5118Z" fill="#243E6C"/>
<path d="M1.24936 24.5362C1.24735 24.5353 1.24533 24.5347 1.24349 24.5347C1.24148 24.5343 1.23946 24.534 1.23762 24.534C1.23175 24.534 1.22698 24.536 1.22368 24.5398C1.22075 24.5433 1.21928 24.5485 1.21928 24.5552V24.5875H1.19727V24.5171H1.21928V24.5288C1.22221 24.5244 1.22533 24.5213 1.22882 24.5193C1.23267 24.5169 1.23726 24.5156 1.24276 24.5156H1.24496C1.24588 24.5156 1.24735 24.516 1.24936 24.5164L1.24936 24.5362Z" fill="#243E6C"/>
<path d="M1.29206 24.5318C1.28711 24.5318 1.28326 24.5336 1.28032 24.5369C1.27775 24.5404 1.27665 24.5455 1.27665 24.5523C1.27665 24.5593 1.27775 24.5646 1.28032 24.5685C1.28326 24.5719 1.28711 24.5736 1.29206 24.5736C1.29683 24.5736 1.3005 24.5719 1.30307 24.5685C1.306 24.5646 1.30747 24.5593 1.30747 24.5523C1.30747 24.5455 1.306 24.5404 1.30307 24.5369C1.3005 24.5336 1.29683 24.5318 1.29206 24.5318ZM1.29206 24.5156C1.30417 24.5156 1.31371 24.5191 1.32068 24.5259C1.32747 24.5323 1.33095 24.5411 1.33095 24.5523C1.33095 24.5641 1.32747 24.5732 1.32068 24.5795C1.31371 24.5859 1.30417 24.589 1.29206 24.589C1.27977 24.589 1.27023 24.5859 1.26345 24.5795C1.25702 24.5732 1.25391 24.5641 1.25391 24.5523C1.25391 24.5411 1.25702 24.5323 1.26345 24.5259C1.27023 24.5191 1.27977 24.5156 1.29206 24.5156Z" fill="#243E6C"/>
<path d="M1.34939 24.5174H1.37141V24.5864C1.37141 24.5961 1.36921 24.6034 1.3648 24.6084C1.3604 24.6131 1.3538 24.6157 1.34499 24.6157H1.33398V24.601H1.33765C1.34206 24.601 1.34499 24.5999 1.34646 24.5981C1.34829 24.5961 1.34939 24.5922 1.34939 24.5864L1.34939 24.5174ZM1.34939 24.4902H1.37141V24.5086H1.34939V24.4902Z" fill="#243E6C"/>
<path d="M1.46156 24.5523V24.5589H1.40947C1.40983 24.5639 1.41167 24.5677 1.4146 24.5707C1.4179 24.5732 1.42267 24.5743 1.42854 24.5743C1.43331 24.5743 1.43827 24.5736 1.44322 24.5721C1.44799 24.5707 1.45313 24.5688 1.45863 24.5663V24.5831C1.45312 24.5851 1.44781 24.5866 1.44249 24.5875C1.43698 24.5885 1.43166 24.589 1.42634 24.589C1.4135 24.589 1.40378 24.5859 1.39699 24.5795C1.39002 24.5732 1.38672 24.5641 1.38672 24.5523C1.38672 24.5411 1.39002 24.5323 1.39699 24.5259C1.40378 24.5191 1.41332 24.5156 1.42561 24.5156C1.43625 24.5156 1.44487 24.5191 1.45129 24.5259C1.45808 24.5323 1.46156 24.5411 1.46156 24.5523L1.46156 24.5523ZM1.43882 24.545C1.43882 24.5406 1.43753 24.5373 1.43515 24.5347C1.43258 24.5318 1.42928 24.5303 1.42488 24.5303C1.42084 24.5303 1.41754 24.5316 1.4146 24.534C1.41167 24.5365 1.40983 24.5402 1.40947 24.545L1.43882 24.545Z" fill="#243E6C"/>
<path d="M1.5382 24.5193V24.5376C1.53526 24.5358 1.53196 24.5343 1.52866 24.5332C1.52572 24.5323 1.52242 24.5318 1.51912 24.5318C1.51325 24.5318 1.5083 24.5338 1.50445 24.5376C1.50096 24.5411 1.49931 24.5461 1.49931 24.5523C1.49931 24.5593 1.50096 24.5646 1.50445 24.5685C1.5083 24.5719 1.51325 24.5736 1.51912 24.5736C1.52297 24.5736 1.52646 24.5732 1.52939 24.5721C1.5327 24.5707 1.53563 24.569 1.5382 24.567V24.5853C1.53471 24.5868 1.53105 24.5877 1.52719 24.5883C1.52371 24.5886 1.52022 24.589 1.51692 24.589C1.50408 24.589 1.49417 24.5859 1.48684 24.5795C1.47986 24.5732 1.47656 24.5641 1.47656 24.5523C1.47656 24.5411 1.47986 24.5323 1.48684 24.5259C1.49417 24.5191 1.50408 24.5156 1.51692 24.5156C1.52022 24.5156 1.52371 24.5162 1.52719 24.5171C1.53104 24.5176 1.53471 24.5184 1.5382 24.5193H1.5382Z" fill="#243E6C"/>
<path d="M1.58258 24.4961V24.5159H1.60606V24.532H1.58258V24.5621C1.58258 24.5651 1.58295 24.5673 1.58405 24.5687C1.58552 24.5698 1.58808 24.5702 1.59212 24.5702H1.60386V24.5863H1.58478C1.57598 24.5863 1.56956 24.5847 1.56571 24.5812C1.56222 24.5774 1.56057 24.5709 1.56057 24.5621V24.532H1.54883V24.5159H1.56057V24.4961L1.58258 24.4961Z" fill="#243E6C"/>
</svg>
