<svg width="60" height="58" viewBox="0 0 60 58" fill="none" xmlns="http://www.w3.org/2000/svg">
<g opacity="0.3">
<path d="M23.236 44.3565L20.6542 47.7685C18.933 49.4746 17.2118 50.3276 15.4907 50.3276C13.7695 50.3276 12.0483 49.4746 10.3271 48.6215C8.60592 46.9155 7.74533 45.2095 7.74533 43.5035C7.74533 41.7975 7.74533 40.0915 9.46651 38.3854L14.6301 32.4144C12.9089 29.0023 12.0483 26.4433 12.9089 23.0312L3.44237 33.2674C1.72119 36.6794 0 40.0914 0 44.3565C0 47.7685 1.72118 52.0336 5.16355 53.7396C7.74533 56.2986 11.1877 57.1516 14.6301 57.1516H15.4907C19.7936 57.1516 23.236 55.4456 25.8178 52.0336L27.539 49.4746L23.236 44.3565Z" fill="white"/>
<path d="M55.9383 34.1204L46.4717 23.0312C46.4717 26.4433 46.4717 29.8553 44.7506 32.4144L50.7747 38.3854C51.6353 40.0915 52.4959 41.7975 51.6353 43.5035C51.6353 45.2095 50.7747 46.9155 49.0535 48.6215C48.1929 50.3276 45.6112 50.3276 43.89 50.3276C42.1688 50.3276 40.4476 49.4746 38.7264 47.7685L36.1446 44.3565L31.8417 49.4746L33.5629 52.0336C36.1446 55.4456 39.587 57.1516 43.0294 57.1516C43.89 57.1516 43.89 57.1516 44.7506 57.1516C48.1929 57.1516 51.6353 56.2986 54.2171 53.7396C56.7989 51.1806 59.3806 47.7685 59.3806 44.3565C59.3806 40.9445 58.52 36.6794 55.9383 34.1204Z" fill="white"/>
<path d="M30.1207 8.5301C32.4972 8.5301 34.4237 6.62057 34.4237 4.26505C34.4237 1.90953 32.4972 0 30.1207 0C27.7443 0 25.8177 1.90953 25.8177 4.26505C25.8177 6.62057 27.7443 8.5301 30.1207 8.5301Z" fill="white"/>
<path d="M43.8907 21.326C42.1695 14.5019 35.2848 11.0898 28.4 11.0898C18.0729 11.9429 11.1882 24.738 18.9335 34.1211L24.9577 41.7982L29.2606 47.7693L33.5636 42.6512L29.2606 35.8271L24.0971 29.8561C21.5153 27.297 22.3759 22.179 24.9577 19.6199C25.8182 19.6199 26.6788 18.7669 27.5394 18.7669C28.4 18.7669 29.2606 18.7669 30.1212 18.7669C31.8424 18.7669 34.4242 19.6199 35.2848 21.326C36.1454 21.326 37.0059 23.032 37.0059 24.738C37.0059 26.444 36.1454 28.15 35.2848 29.8561L33.5636 31.5621L37.8665 37.5332C38.7271 36.6801 39.5877 34.9741 40.4483 34.1211C43.8907 30.7091 45.6119 26.444 43.8907 21.326Z" fill="white"/>
</g>
</svg>
