<svg width="26" height="22" viewBox="0 0 26 22" fill="none" xmlns="http://www.w3.org/2000/svg">
<path d="M24.0335 7.13934C24.0335 7.42698 24.013 7.71204 23.977 7.99456C23.9873 7.92521 23.995 7.85844 24.0053 7.7891C23.9282 8.34639 23.7818 8.89086 23.5661 9.41218C23.5918 9.35054 23.6175 9.2889 23.6431 9.22727C23.5353 9.48409 23.412 9.73318 23.2708 9.97203C23.1988 10.0927 23.1244 10.2134 23.0448 10.329C23.0062 10.3881 22.9651 10.4446 22.9215 10.5036C22.9035 10.5268 22.8881 10.5499 22.8701 10.573C22.7828 10.6937 22.9882 10.424 22.8727 10.5704C22.6518 10.8452 22.4053 11.0943 22.1561 11.3435C21.9507 11.5489 21.7452 11.7544 21.5424 11.9572C21.0056 12.494 20.4663 13.0333 19.9295 13.5701C19.0101 14.4895 18.0881 15.4115 17.1687 16.3309C16.2878 17.2118 15.4044 18.0952 14.5235 18.9761C14.0946 19.405 13.6683 19.8416 13.2317 20.2679C13.2291 20.2705 13.2265 20.2731 13.224 20.2756C13.1572 20.3399 13.111 20.3219 13.2676 20.25C13.2137 20.2756 13.1675 20.3142 13.1135 20.3373C13.1752 20.3116 13.2368 20.2859 13.2984 20.2602C13.2214 20.2911 13.1443 20.3142 13.0647 20.327C13.1341 20.3167 13.2008 20.309 13.2702 20.2988C13.188 20.309 13.1084 20.309 13.0288 20.2988C13.0981 20.309 13.1649 20.3167 13.2342 20.327C13.152 20.3142 13.075 20.2936 13.0005 20.2602C13.0622 20.2859 13.1238 20.3116 13.1854 20.3373C13.1315 20.3116 13.0827 20.2782 13.0313 20.25C13.2085 20.3501 13.1315 20.3296 13.075 20.2756C13.0724 20.2731 13.0699 20.2705 13.0673 20.2679C13.0519 20.2525 13.0365 20.2371 13.0211 20.2217C12.9517 20.1524 12.8824 20.083 12.813 20.0137C12.5434 19.744 12.2763 19.4769 12.0066 19.2073C11.1437 18.3444 10.2834 17.484 9.42046 16.6211C8.46766 15.676 7.52256 14.7309 6.57488 13.7832L4.33027 11.5386C4.14022 11.3486 3.94761 11.1637 3.76528 10.9685C3.68053 10.8786 3.59578 10.7836 3.51617 10.6885C3.47764 10.6423 3.43912 10.5935 3.39803 10.5447C3.31071 10.4368 3.49819 10.6783 3.43912 10.5986C3.41344 10.5653 3.38775 10.5293 3.36208 10.4959C3.21826 10.2982 3.08728 10.0953 2.96914 9.88213C2.851 9.67411 2.74571 9.45581 2.65325 9.23496L2.73029 9.41987C2.512 8.89338 2.36304 8.34379 2.286 7.7788C2.29627 7.84815 2.30398 7.91492 2.31425 7.98426C2.24234 7.4218 2.24234 6.85681 2.31425 6.2944C2.30398 6.36375 2.29627 6.43051 2.286 6.49986C2.36304 5.93487 2.50943 5.38528 2.73029 4.85879L2.65325 5.0437C2.79964 4.69957 2.9717 4.36826 3.17461 4.05493C3.22854 3.97275 3.28248 3.89314 3.33898 3.81352C3.35952 3.7827 3.38264 3.75446 3.40318 3.72363C3.52132 3.56441 3.3133 3.83663 3.39548 3.73391C3.51619 3.58238 3.64203 3.43599 3.77301 3.29731C3.92196 3.14065 4.07862 2.9917 4.243 2.85045C4.32004 2.78624 4.39965 2.72461 4.4767 2.6604C4.29436 2.81963 4.44589 2.68608 4.49211 2.65269C4.53834 2.61931 4.58457 2.58592 4.6308 2.5551C4.98778 2.30856 5.37044 2.1031 5.76853 1.93362C5.70689 1.9593 5.64525 1.98498 5.58362 2.01066C6.10498 1.79493 6.6494 1.64855 7.20669 1.5715C7.13735 1.58177 7.07058 1.58948 7.00124 1.59975C7.56881 1.52527 8.14409 1.52527 8.71425 1.59975C8.6449 1.58948 8.57814 1.58177 8.50879 1.5715C9.06608 1.64854 9.61055 1.79493 10.1319 2.01066C10.0702 1.98498 10.0086 1.9593 9.94696 1.93362C10.345 2.10312 10.7277 2.30858 11.0847 2.5551C11.1669 2.6116 11.2439 2.67581 11.3261 2.72974C11.1232 2.59876 11.2927 2.70406 11.3389 2.74259C11.3826 2.77854 11.4263 2.81449 11.4699 2.85302C11.5932 2.96089 11.7139 3.07131 11.8295 3.18689L12.5999 3.95733C12.8953 4.25268 13.3935 4.25268 13.6889 3.95733C13.9174 3.72876 14.146 3.50019 14.3746 3.2716C14.5081 3.13806 14.6417 3.00708 14.7829 2.88381C14.8394 2.83501 14.8959 2.78622 14.9524 2.73999C14.9807 2.71687 15.0115 2.69376 15.0398 2.67065C15.1014 2.62185 14.9447 2.74255 14.9576 2.73485C14.9781 2.72458 14.9987 2.70403 15.0166 2.69119C15.145 2.59617 15.276 2.50628 15.4096 2.42153C15.7049 2.23405 16.0157 2.07482 16.3367 1.93872C16.275 1.9644 16.2134 1.99009 16.1518 2.01577C16.6783 1.79747 17.2278 1.64851 17.7928 1.57147C17.7235 1.58174 17.6567 1.58945 17.5874 1.59972C18.1498 1.52781 18.7148 1.52781 19.2772 1.59972C19.2079 1.58945 19.1411 1.58174 19.0718 1.57147C19.6368 1.64851 20.1864 1.7949 20.7128 2.01577C20.6512 1.99008 20.5896 1.9644 20.5279 1.93872C20.8721 2.08511 21.2034 2.25717 21.5167 2.46009C21.5989 2.51402 21.6785 2.56795 21.7581 2.62445C21.7889 2.645 21.8172 2.66811 21.848 2.68866C22.0072 2.80679 21.735 2.59877 21.8377 2.68095C21.9893 2.80166 22.1356 2.9275 22.2743 3.05848C22.431 3.20743 22.5799 3.36409 22.7212 3.52847C22.7854 3.60551 22.847 3.68513 22.9112 3.76217C22.752 3.57983 22.8856 3.73136 22.9189 3.77758C22.9523 3.82381 22.9857 3.87004 23.0165 3.91627C23.2631 4.27325 23.4685 4.65591 23.638 5.054C23.6123 4.99236 23.5867 4.93072 23.561 4.86909C23.7767 5.39045 23.9231 5.93488 24.0001 6.49217C23.9899 6.42282 23.9822 6.35605 23.9719 6.28671C24.013 6.56664 24.0335 6.8517 24.0335 7.13934C24.0335 7.54255 24.3879 7.92777 24.804 7.90979C25.22 7.89181 25.577 7.57078 25.5744 7.13934C25.5693 5.76793 25.1789 4.38623 24.4239 3.23826C23.7125 2.15961 22.7134 1.25306 21.5398 0.706012C20.4534 0.197515 19.2515 -0.0618999 18.0496 0.0125808C16.8452 0.084488 15.6586 0.441469 14.6365 1.08865C13.8634 1.57663 13.2445 2.22639 12.605 2.86586H13.694L12.9569 2.1288C12.4407 1.6126 11.85 1.1606 11.2003 0.824167C9.685 0.0357327 7.93865 -0.187709 6.27448 0.176992C5.47835 0.351632 4.69762 0.675205 4.01189 1.11697C3.28253 1.58696 2.66616 2.17252 2.14226 2.8582C1.26394 4.00617 0.78367 5.43666 0.724592 6.87485C0.665524 8.30276 1.05589 9.76664 1.82635 10.9712C2.31174 11.7314 2.9538 12.3426 3.58815 12.9743L11.2184 20.6046C11.4675 20.8537 11.7141 21.1028 11.9632 21.3494C12.4948 21.8759 13.3346 22.0119 13.9869 21.6216C14.159 21.5189 14.2951 21.3879 14.4338 21.2492L15.4483 20.2348C16.021 19.6621 16.5937 19.0893 17.1638 18.5192C17.8264 17.8566 18.4916 17.1915 19.1542 16.5288C19.7757 15.9074 20.3972 15.2858 21.0213 14.6618C21.4604 14.2226 21.897 13.786 22.3362 13.3468C22.5339 13.1491 22.7291 12.9539 22.9269 12.7562C23.253 12.43 23.5894 12.1141 23.8848 11.7597C24.4549 11.074 24.889 10.3164 25.1843 9.47399C25.4463 8.72923 25.5721 7.92534 25.5747 7.13691C25.5747 6.7337 25.2203 6.34847 24.8042 6.36646C24.3856 6.38701 24.0338 6.70803 24.0338 7.13949L24.0335 7.13934Z" fill="#243E6C"/>
</svg>
