<svg width="203" height="38" viewBox="0 0 203 38" fill="none" xmlns="http://www.w3.org/2000/svg">
<path d="M54.3671 15.5886H49.56V29.3533H45.8212V15.5886H41.0142V12.4121H54.9012V15.5886H54.3671Z" fill="#4C4C4C"/>
<path d="M68.7882 16.1191V29.8838H66.1177L65.5835 28.825C64.5153 29.8838 62.9129 30.4133 61.3106 30.4133C57.0377 30.4133 54.3671 27.2368 54.3671 23.0015C54.3671 18.7662 57.5718 16.1191 61.3106 16.1191C62.9129 16.1191 64.5153 16.6486 65.5835 17.7074L66.1177 16.1191H68.7882ZM65.0494 23.0015C65.0494 20.8838 63.4471 19.2956 61.3106 19.2956C59.1741 19.2956 57.5718 20.8838 57.5718 23.0015C57.5718 25.1191 59.1741 26.7074 61.3106 26.7074C63.4471 26.7074 65.0494 25.1191 65.0494 23.0015Z" fill="#4C4C4C"/>
<path d="M72.5271 11.3535H76.2659V29.8829H72.5271V11.3535Z" fill="#4C4C4C"/>
<path d="M92.8236 24.0604H82.6754C83.2095 25.6487 84.2777 26.7075 85.8801 26.7075C86.9483 26.7075 88.0165 26.1781 88.5506 25.1193H92.8236C91.7553 28.2957 89.0848 29.884 85.8801 29.884C81.6071 29.884 78.9365 26.7075 78.9365 22.4722C78.9365 18.2369 82.1412 15.5898 85.8801 15.5898C90.153 15.5898 92.8236 18.7663 92.8236 23.0016C92.8236 23.0016 92.8236 23.531 92.8236 24.0604ZM82.6754 21.4134H89.0848C88.5506 19.8251 87.4824 18.7663 85.8801 18.7663C84.2777 18.7663 83.2095 19.8251 82.6754 21.4134Z" fill="#4C4C4C"/>
<path d="M108.313 21.4134V29.3545H104.574V21.9428C104.574 19.8251 104.04 18.7663 102.438 18.7663C100.301 18.7663 99.233 20.3545 99.233 22.4722V29.3545H95.4941V16.1193H98.1647L98.6988 17.7075C99.7671 16.6487 101.369 15.5898 102.972 15.5898C106.176 15.5898 108.313 18.2369 108.313 21.4134Z" fill="#4C4C4C"/>
<path d="M120.064 26.1768V29.3533H117.393C114.188 29.3533 112.586 27.765 112.586 24.5886V19.2945H109.915V18.2356L115.256 12.4121H115.791V16.118H119.529V19.2945H115.791V24.5886C115.791 25.6474 116.325 26.7062 117.927 26.7062H120.064V26.1768Z" fill="#4C4C4C"/>
<path d="M122.2 11.3535H125.939V29.8829H122.2V11.3535Z" fill="#243E6C"/>
<path d="M129.678 16.1183H133.417V29.883H129.678V16.1183ZM129.678 10.8242H133.417V14.0007H129.678V10.8242Z" fill="#243E6C"/>
<path d="M149.974 21.4134V29.3545H146.235V21.9428C146.235 19.8251 145.701 18.7663 144.099 18.7663C141.962 18.7663 140.894 20.3545 140.894 22.4722V29.3545H137.155V16.1193H139.826L140.36 17.7075C141.428 16.6487 143.031 15.5898 144.633 15.5898C147.838 15.5898 149.974 18.2369 149.974 21.4134Z" fill="#243E6C"/>
<path d="M161.725 29.8829L156.918 23.0006V29.3535H153.179V11.3535H156.918V22.4712L161.191 16.6476H165.464L160.656 23.0006L165.998 29.8829H161.725Z" fill="#243E6C"/>
<path d="M166.532 20.8828H174.544V24.5887H166.532V20.8828Z" fill="#243E6C"/>
<path d="M188.431 26.1769H181.487L180.419 29.3534H176.146L183.089 11.8828H186.828L193.772 29.3534H189.499L188.431 26.1769ZM182.555 23.0005H187.362L185.226 16.6475L182.555 23.0005Z" fill="#243E6C"/>
<path d="M195.908 12.4121H199.647V29.8827H195.908V12.4121Z" fill="#243E6C"/>
<path d="M16.4447 27.7646L14.8424 29.8822C13.7741 30.9411 12.7059 31.4705 11.6377 31.4705C10.5694 31.4705 9.50121 30.9411 8.43297 30.4117C7.36474 29.3528 6.83062 28.294 6.83062 27.2352C6.83062 26.1764 6.83062 25.1175 7.89885 24.0587L11.1036 20.3528C10.0353 18.2352 9.50121 16.6469 10.0353 14.5293L4.16003 20.8822C3.0918 22.9999 2.02356 25.1175 2.02356 27.7646C2.02356 29.8822 3.09179 32.5293 5.22827 33.5881C6.83062 35.1764 8.96709 35.7058 11.1036 35.7058H11.6377C14.3083 35.7058 16.4447 34.6469 18.0471 32.5293L19.1153 30.9411L16.4447 27.7646Z" fill="#4C4C4C"/>
<path d="M36.7412 21.4117L30.8659 14.5293C30.8659 16.6469 30.8659 18.7646 29.7977 20.3528L33.5365 24.0587C34.0706 25.1175 34.6047 26.1764 34.0706 27.2352C34.0706 28.294 33.5365 29.3528 32.4682 30.4117C31.9341 31.4705 30.3318 31.4705 29.2635 31.4705C28.1953 31.4705 27.1271 30.9411 26.0588 29.8822L24.4565 27.7646L21.7859 30.9411L22.8541 32.5293C24.4565 34.6469 26.5929 35.7058 28.7294 35.7058C29.2635 35.7058 29.2635 35.7058 29.7977 35.7058C31.9341 35.7058 34.0706 35.1764 35.6729 33.5881C37.2753 31.9999 38.8777 29.8822 38.8777 27.7646C38.8777 25.6469 38.3435 22.9999 36.7412 21.4117Z" fill="#4C4C4C"/>
<path d="M20.7177 5.52849C22.1926 5.52849 23.3883 4.34336 23.3883 2.88143C23.3883 1.4195 22.1926 0.234375 20.7177 0.234375C19.2428 0.234375 18.0471 1.4195 18.0471 2.88143C18.0471 4.34336 19.2428 5.52849 20.7177 5.52849Z" fill="#243E6C"/>
<path d="M29.2636 13.4701C28.1953 9.23483 23.9224 7.11719 19.6495 7.11719C13.2401 7.6466 8.96711 15.5878 13.7742 21.4113L17.513 26.176L20.1836 29.8819L22.8542 26.7054L20.1836 22.4701L16.9789 18.7642C15.3765 17.176 15.9106 13.9995 17.513 12.4113C18.0471 12.4113 18.5812 11.8819 19.1153 11.8819C19.6495 11.8819 20.1836 11.8819 20.7177 11.8819C21.7859 11.8819 23.3883 12.4113 23.9224 13.4701C24.4565 13.4701 24.9906 14.529 24.9906 15.5878C24.9906 16.6466 24.4565 17.7054 23.9224 18.7642L22.8542 19.8231L25.5248 23.529C26.0589 22.9995 26.593 21.9407 27.1271 21.4113C29.2636 19.2937 30.3318 16.6466 29.2636 13.4701Z" fill="#243E6C"/>
</svg>
