<svg width="13" height="13" viewBox="0 0 13 13" fill="none" xmlns="http://www.w3.org/2000/svg">
<path d="M10.7881 0.490553C10.1329 -0.163518 9.0718 -0.163518 8.41658 0.490553L7.82294 1.08744L1.50372 7.40331L1.49029 7.41684C1.48704 7.42009 1.48704 7.42355 1.48357 7.42355C1.47686 7.43363 1.46679 7.44359 1.46018 7.45367C1.46018 7.45702 1.45671 7.45702 1.45671 7.46038C1.45 7.47045 1.44675 7.47717 1.43993 7.48724C1.43667 7.4906 1.43667 7.49385 1.43332 7.49731C1.42996 7.50739 1.4266 7.5141 1.42314 7.52417C1.42314 7.52743 1.41989 7.52743 1.41989 7.53089L0.0178424 11.747C-0.0232862 11.867 0.00797995 12 0.098316 12.089C0.161793 12.1517 0.247407 12.1867 0.336484 12.1864C0.372891 12.1858 0.408984 12.1801 0.443817 12.1696L4.65667 10.7642C4.65992 10.7642 4.65992 10.7642 4.66338 10.761C4.67398 10.7578 4.68415 10.7533 4.69349 10.7474C4.69612 10.7471 4.69842 10.7459 4.70031 10.7442C4.71028 10.7374 4.72371 10.7306 4.73378 10.7239C4.74375 10.7173 4.75393 10.7072 4.764 10.7005C4.76736 10.6971 4.77061 10.6971 4.77061 10.6938C4.77407 10.6904 4.78079 10.6872 4.78414 10.6804L11.697 3.76752C12.3511 3.11229 12.3511 2.05124 11.697 1.39612L10.7881 0.490553ZM4.54933 9.97594L2.21486 7.64158L8.05775 1.79869L10.3922 4.13306L4.54933 9.97594ZM1.88605 8.26207L3.92548 10.3014L0.863077 11.321L1.88605 8.26207ZM11.2241 3.29789L10.8686 3.65683L8.53398 1.32225L8.89302 0.963427C9.28573 0.571027 9.92228 0.571027 10.3151 0.963427L11.2274 1.87571C11.6172 2.2702 11.6157 2.90528 11.2241 3.29789Z" fill="#8388A0"/>
</svg>
