<svg width="23" height="23" viewBox="0 0 23 23" fill="none" xmlns="http://www.w3.org/2000/svg">
<path d="M1.89277 6.18244L18.9411 7.67808C19.1134 7.69309 19.2779 7.75656 19.4156 7.86115C19.5533 7.96574 19.6586 8.10717 19.7193 8.2691C19.78 8.43103 19.7936 8.60683 19.7586 8.77616C19.7235 8.9455 19.6413 9.10146 19.5213 9.226L7.65592 21.5587C7.53433 21.6853 7.37894 21.7742 7.20825 21.815C7.03756 21.8557 6.85875 21.8466 6.6931 21.7887C6.52745 21.7307 6.38193 21.6264 6.27386 21.4881C6.16579 21.3499 6.09971 21.1835 6.08349 21.0087L5.54247 15.1642C5.53582 15.0925 5.55039 15.0206 5.58438 14.9572C5.61837 14.8938 5.67027 14.8418 5.7336 14.8077L12.3824 11.2303C12.4101 11.2152 12.4334 11.1931 12.4501 11.1663C12.4668 11.1395 12.4762 11.1088 12.4776 11.0773L12.474 11.0301C12.465 10.9898 12.4427 10.9536 12.4106 10.9276C12.3786 10.9015 12.3386 10.8871 12.2973 10.8866L12.2557 10.8904L4.90047 12.5619C4.8304 12.5776 4.75725 12.5725 4.6901 12.547C4.62296 12.5215 4.56478 12.4769 4.5228 12.4186L1.06948 7.63116C0.966656 7.48883 0.906914 7.31994 0.897365 7.14461C0.887816 6.96929 0.928863 6.79491 1.01562 6.64225C1.10237 6.4896 1.23118 6.36509 1.38669 6.28357C1.5422 6.20205 1.71787 6.16695 1.89277 6.18244Z" fill="white"/>
</svg>
