<svg width="103" height="103" viewBox="0 0 103 103" fill="none" xmlns="http://www.w3.org/2000/svg">
<g clip-path="url(#clip0_212_22096)">
<path d="M51.4996 0C65.7206 0 78.5955 5.76441 87.9156 15.0837C97.2356 24.403 103 37.2788 103 51.4992C103 65.7212 97.2356 78.5962 87.9156 87.9155C78.5955 97.2348 65.7206 103 51.4996 103C37.2785 103 24.4036 97.2356 15.0844 87.9163C5.7652 78.597 0 65.7212 0 51.4992C0 37.2788 5.76437 24.403 15.0844 15.0837C24.4045 5.76441 37.2785 0 51.4996 0ZM28.9652 56.3105C27.8646 55.3147 27.7791 53.6148 28.7757 52.5142C29.7715 51.4137 31.4714 51.3282 32.572 52.324L43.8383 62.5401L70.278 34.8488C71.3031 33.7709 73.0089 33.729 74.086 34.7533C75.1631 35.7784 75.2058 37.4833 74.1807 38.5605L45.928 68.1512L45.9247 68.1478C44.923 69.2015 43.2575 69.2693 42.1737 68.2886L28.9652 56.3105ZM84.0975 18.9018C75.7548 10.5598 64.2295 5.39895 51.4996 5.39895C38.7689 5.39895 27.2435 10.559 18.9016 18.9009C10.5589 27.2437 5.39974 38.7683 5.39974 51.4992C5.39974 64.23 10.5598 75.7555 18.9016 84.0982C27.2435 92.4402 38.7689 97.6002 51.4996 97.6002C64.2295 97.6002 75.7548 92.4402 84.0975 84.0982C92.4402 75.7555 97.5986 64.2308 97.5986 51.4992C97.5994 38.7692 92.4402 27.2437 84.0975 18.9018Z" fill="#1A7E18"/>
</g>
<defs>
<clipPath id="clip0_212_22096">
<rect width="103" height="103" fill="white"/>
</clipPath>
</defs>
</svg>
